<?xml version="1.0" encoding="utf-8" standalone="no"?>
<!DOCTYPE svg PUBLIC "-//W3C//DTD SVG 1.1//EN"
  "http://www.w3.org/Graphics/SVG/1.1/DTD/svg11.dtd">
<svg xmlns:xlink="http://www.w3.org/1999/xlink" width="720pt" height="360pt" viewBox="0 0 720 360" xmlns="http://www.w3.org/2000/svg" version="1.1">
 <metadata>
  <rdf:RDF xmlns:dc="http://purl.org/dc/elements/1.1/" xmlns:cc="http://creativecommons.org/ns#" xmlns:rdf="http://www.w3.org/1999/02/22-rdf-syntax-ns#">
   <cc:Work>
    <dc:type rdf:resource="http://purl.org/dc/dcmitype/StillImage"/>
    <dc:date>2025-03-18T20:19:35.411365</dc:date>
    <dc:format>image/svg+xml</dc:format>
    <dc:creator>
     <cc:Agent>
      <dc:title>Matplotlib v3.7.5, https://matplotlib.org/</dc:title>
     </cc:Agent>
    </dc:creator>
   </cc:Work>
  </rdf:RDF>
 </metadata>
 <defs>
  <style type="text/css">*{stroke-linejoin: round; stroke-linecap: butt}</style>
 </defs>
 <g id="figure_1">
  <g id="patch_1">
   <path d="M 0 360 
L 720 360 
L 720 0 
L 0 0 
z
" style="fill: #ffffff"/>
  </g>
  <g id="axes_1">
   <g id="patch_2">
    <path d="M 55.15 318.44 
L 698.4 318.44 
L 698.4 38.4 
L 55.15 38.4 
z
" style="fill: #ffffff"/>
   </g>
   <g id="line2d_1">
    <path d="M 55.15 318.44 
L 698.4 318.44 
" clip-path="url(#pe314cf4a80)" style="fill: none; stroke: #000000; stroke-width: 0.5; stroke-linecap: square"/>
   </g>
   <g id="patch_3">
    <path d="M 55.15 314.735364 
L 58.810155 314.735364 
L 58.810155 316.9136 
Q 58.810155 317.363732 59.385192 317.557647 
Q 59.960228 317.750784 61.262428 317.750784 
Q 62.573756 317.750784 63.148792 317.557647 
Q 63.723829 317.363732 63.723829 316.9136 
L 63.723829 314.735364 
L 67.383984 314.735364 
L 67.383984 316.9136 
Q 67.383984 317.685366 65.87185 318.063073 
Q 64.362759 318.44 61.262428 318.44 
Q 58.171225 318.44 56.659091 318.063073 
Q 55.15 317.685366 55.15 316.9136 
L 55.15 314.735364 
z
" clip-path="url(#pe314cf4a80)" style="fill: #008000"/>
   </g>
   <g id="patch_4">
    <path d="M 68.027878 290.629337 
L 71.688033 290.629337 
L 71.688033 306.981329 
Q 71.688033 310.360467 72.26307 311.816186 
Q 72.838106 313.266059 74.140306 313.266059 
Q 75.451633 313.266059 76.02667 311.816186 
Q 76.601707 310.360467 76.601707 306.981329 
L 76.601707 290.629337 
L 80.261862 290.629337 
L 80.261862 306.981329 
Q 80.261862 312.774973 78.749728 315.61041 
Q 77.240637 318.44 74.140306 318.44 
Q 71.049103 318.44 69.536969 315.61041 
Q 68.027878 312.774973 68.027878 306.981329 
L 68.027878 290.629337 
z
" clip-path="url(#pe314cf4a80)" style="fill: #008000"/>
   </g>
   <g id="patch_5">
    <path d="M 93.13974 316.131621 
Q 91.905922 317.28581 90.578883 317.86554 
Q 89.251844 318.44 87.837067 318.44 
Q 84.640109 318.44 82.772933 315.003782 
Q 80.905756 311.567564 80.905756 305.69121 
Q 80.905756 299.746343 82.805834 296.336476 
Q 84.708655 292.92661 88.018027 292.92661 
Q 89.292972 292.92661 90.460985 293.390394 
Q 91.631741 293.848908 92.668147 294.755394 
L 92.668147 299.841208 
Q 91.598839 298.676477 90.540498 298.102018 
Q 89.482157 297.522288 88.418332 297.522288 
Q 86.449708 297.522288 85.383142 299.640937 
Q 84.316575 301.754317 84.316575 305.69121 
Q 84.316575 309.591212 85.344756 311.720402 
Q 86.372937 313.844322 88.26479 313.844322 
Q 88.780252 313.844322 89.221684 313.723106 
Q 89.663117 313.596619 90.014069 313.333106 
L 90.014069 308.558239 
L 87.998834 308.558239 
L 87.998834 304.305129 
L 93.13974 304.305129 
L 93.13974 316.131621 
z
" clip-path="url(#pe314cf4a80)" style="fill: #ffa500"/>
   </g>
   <g id="patch_6">
    <path d="M 106.017618 312.323202 
Q 104.7838 315.381601 103.456761 316.917783 
Q 102.129722 318.44 100.714945 318.44 
Q 97.517987 318.44 95.65081 309.33463 
Q 93.783634 300.229259 93.783634 284.657959 
Q 93.783634 268.90511 95.683712 259.869566 
Q 97.586533 250.834022 100.895905 250.834022 
Q 102.170849 250.834022 103.338863 252.062968 
Q 104.509619 253.277948 105.546025 255.679978 
L 105.546025 269.156485 
Q 104.476717 266.070156 103.418376 264.547939 
Q 102.360035 263.011757 101.29621 263.011757 
Q 99.327586 263.011757 98.26102 268.625804 
Q 97.194453 274.225886 97.194453 284.657959 
Q 97.194453 294.992275 98.222634 300.634253 
Q 99.250815 306.262266 101.142668 306.262266 
Q 101.65813 306.262266 102.099562 305.941064 
Q 102.540995 305.605897 102.891947 304.907632 
L 102.891947 292.255078 
L 100.876712 292.255078 
L 100.876712 280.985087 
L 106.017618 280.985087 
L 106.017618 312.323202 
z
" clip-path="url(#pe314cf4a80)" style="fill: #ffa500"/>
   </g>
   <g id="patch_7">
    <path d="M 118.895495 304.759608 
Q 117.872144 311.540667 116.765568 314.970621 
Q 115.658992 318.44 114.453779 318.44 
Q 110.859719 318.44 108.760615 292.735055 
Q 106.661512 267.03011 106.661512 223.071501 
Q 106.661512 178.955192 108.760615 153.289672 
Q 110.859719 127.584728 114.453779 127.584728 
Q 115.658992 127.584728 116.765568 131.054107 
Q 117.872144 134.484061 118.895495 141.26512 
L 118.895495 179.310015 
Q 117.862897 170.32117 116.861122 166.142145 
Q 115.859347 161.96312 114.752771 161.96312 
Q 112.767715 161.96312 111.630315 178.245547 
Q 110.495998 194.488549 110.495998 223.071501 
Q 110.495998 251.536179 111.630315 267.818606 
Q 112.767715 284.061608 114.752771 284.061608 
Q 115.859347 284.061608 116.861122 279.882583 
Q 117.862897 275.664133 118.895495 266.675288 
L 118.895495 304.759608 
z
" clip-path="url(#pe314cf4a80)" style="fill: #0000ff"/>
   </g>
   <g id="patch_8">
    <path d="M 131.773373 314.820094 
Q 130.539556 316.630047 129.212517 317.539156 
Q 127.885478 318.44 126.470701 318.44 
Q 123.273743 318.44 121.406566 313.051463 
Q 119.539389 307.662927 119.539389 298.447868 
Q 119.539389 289.125369 121.439468 283.778156 
Q 123.342288 278.430942 126.651661 278.430942 
Q 127.926605 278.430942 129.094619 279.158229 
Q 130.265374 279.877252 131.301781 281.298768 
L 131.301781 289.274132 
Q 130.232473 287.44765 129.174132 286.546806 
Q 128.115791 285.637697 127.051966 285.637697 
Q 125.083342 285.637697 124.016775 288.960077 
Q 122.950209 292.274192 122.950209 298.447868 
Q 122.950209 304.563692 123.97839 307.902601 
Q 125.006571 311.233246 126.898424 311.233246 
Q 127.413886 311.233246 127.855318 311.043159 
Q 128.29675 310.844808 128.647703 310.431577 
L 128.647703 302.943825 
L 126.632468 302.943825 
L 126.632468 296.274271 
L 131.773373 296.274271 
L 131.773373 314.820094 
z
" clip-path="url(#pe314cf4a80)" style="fill: #ffa500"/>
   </g>
   <g id="patch_9">
    <path d="M 144.651251 316.154776 
Q 143.417434 317.297388 142.090395 317.871303 
Q 140.763356 318.44 139.348579 318.44 
Q 136.151621 318.44 134.284444 315.038251 
Q 132.417267 311.636502 132.417267 305.819094 
Q 132.417267 299.93386 134.317346 296.558198 
Q 136.220166 293.182536 139.529539 293.182536 
Q 140.804483 293.182536 141.972497 293.641668 
Q 143.143252 294.095582 144.179659 294.992976 
L 144.179659 300.027773 
Q 143.110351 298.874726 142.052009 298.306029 
Q 140.993668 297.732114 139.929844 297.732114 
Q 137.96122 297.732114 136.894653 299.829512 
Q 135.828087 301.921692 135.828087 305.819094 
Q 135.828087 309.679975 136.856268 311.787807 
Q 137.884449 313.890422 139.776302 313.890422 
Q 140.291763 313.890422 140.733196 313.770421 
Q 141.174628 313.645204 141.525581 313.384333 
L 141.525581 308.657363 
L 139.510346 308.657363 
L 139.510346 304.446916 
L 144.651251 304.446916 
L 144.651251 316.154776 
z
" clip-path="url(#pe314cf4a80)" style="fill: #ffa500"/>
   </g>
   <g id="patch_10">
    <path d="M 157.529129 317.572723 
Q 156.295312 318.006361 154.968273 318.224171 
Q 153.641234 318.44 152.226457 318.44 
Q 149.029499 318.44 147.162322 317.148984 
Q 145.295145 315.857968 145.295145 313.650173 
Q 145.295145 311.416636 147.195224 310.135521 
Q 149.098044 308.854406 152.407416 308.854406 
Q 153.682361 308.854406 154.850375 309.028653 
Q 156.02113 309.200921 157.057537 309.541495 
L 157.057537 311.452278 
Q 155.988228 311.014679 154.929887 310.79885 
Q 153.871546 310.58104 152.807722 310.58104 
Q 150.839098 310.58104 149.772531 311.377035 
Q 148.705965 312.171049 148.705965 313.650173 
Q 148.705965 315.115436 149.734146 315.915391 
Q 150.762327 316.713365 152.65418 316.713365 
Q 153.169641 316.713365 153.611074 316.667823 
Q 154.052506 316.620301 154.403459 316.521297 
L 154.403459 314.727339 
L 152.388224 314.727339 
L 152.388224 313.12941 
L 157.529129 313.12941 
L 157.529129 317.572723 
z
" clip-path="url(#pe314cf4a80)" style="fill: #ffa500"/>
   </g>
   <g id="patch_11">
    <path d="M 170.407007 317.812264 
Q 169.17319 318.126132 167.846151 318.283783 
Q 166.519112 318.44 165.104334 318.44 
Q 161.907377 318.44 160.0402 317.505562 
Q 158.173023 316.571123 158.173023 314.973119 
Q 158.173023 313.356484 160.073102 312.429211 
Q 161.975922 311.501939 165.285294 311.501939 
Q 166.560239 311.501939 167.728253 311.62806 
Q 168.899008 311.752747 169.935415 311.999255 
L 169.935415 313.382281 
Q 168.866106 313.065547 167.807765 312.909329 
Q 166.749424 312.751679 165.685599 312.751679 
Q 163.716975 312.751679 162.650409 313.32782 
Q 161.583842 313.902528 161.583842 314.973119 
Q 161.583842 316.033678 162.612023 316.612686 
Q 163.640205 317.19026 165.532058 317.19026 
Q 166.047519 317.19026 166.488952 317.157297 
Q 166.930384 317.122901 167.281337 317.051241 
L 167.281337 315.752773 
L 165.266102 315.752773 
L 165.266102 314.596191 
L 170.407007 314.596191 
L 170.407007 317.812264 
z
" clip-path="url(#pe314cf4a80)" style="fill: #ffa500"/>
   </g>
   <g id="patch_12">
    <path d="M 183.284885 316.282581 
Q 182.261533 317.351964 181.154957 317.892874 
Q 180.048381 318.44 178.843169 318.44 
Q 175.249109 318.44 173.150005 314.38629 
Q 171.050901 310.33258 171.050901 303.400239 
Q 171.050901 296.443029 173.150005 292.395536 
Q 175.249109 288.341827 178.843169 288.341827 
Q 180.048381 288.341827 181.154957 288.888953 
Q 182.261533 289.429862 183.284885 290.499246 
L 183.284885 296.498985 
Q 182.252286 295.08143 181.250511 294.422391 
Q 180.248736 293.763353 179.14216 293.763353 
Q 177.157105 293.763353 176.019705 296.331117 
Q 174.885387 298.892663 174.885387 303.400239 
Q 174.885387 307.889163 176.019705 310.456927 
Q 177.157105 313.018474 179.14216 313.018474 
Q 180.248736 313.018474 181.250511 312.359435 
Q 182.252286 311.694179 183.284885 310.276624 
L 183.284885 316.282581 
z
" clip-path="url(#pe314cf4a80)" style="fill: #0000ff"/>
   </g>
   <g id="patch_13">
    <path d="M 196.162763 312.622283 
Q 194.928945 315.531141 193.601906 316.992212 
Q 192.274867 318.44 190.86009 318.44 
Q 187.663132 318.44 185.795956 309.779836 
Q 183.928779 301.119672 183.928779 286.309729 
Q 183.928779 271.327114 185.828857 262.733363 
Q 187.731678 254.139611 191.04105 254.139611 
Q 192.315995 254.139611 193.484008 255.308468 
Q 194.654764 256.464042 195.69117 258.748625 
L 195.69117 271.566199 
Q 194.621862 268.630775 193.563521 267.182987 
Q 192.50518 265.721916 191.441355 265.721916 
Q 189.472731 265.721916 188.406165 271.061465 
Q 187.339598 276.387732 187.339598 286.309729 
Q 187.339598 296.13875 188.367779 301.504864 
Q 189.39596 306.857695 191.287814 306.857695 
Q 191.803275 306.857695 192.244707 306.552198 
Q 192.68614 306.233419 193.037092 305.569296 
L 193.037092 293.535388 
L 191.021857 293.535388 
L 191.021857 282.816442 
L 196.162763 282.816442 
L 196.162763 312.622283 
z
" clip-path="url(#pe314cf4a80)" style="fill: #ffa500"/>
   </g>
   <g id="patch_14">
    <path d="M 196.806657 283.899264 
L 200.466812 283.899264 
L 200.466812 304.208375 
Q 200.466812 308.405252 201.041848 310.213249 
Q 201.616885 312.013985 202.919085 312.013985 
Q 204.230412 312.013985 204.805449 310.213249 
Q 205.380486 308.405252 205.380486 304.208375 
L 205.380486 283.899264 
L 209.040641 283.899264 
L 209.040641 304.208375 
Q 209.040641 311.404059 207.528507 314.92566 
Q 206.019416 318.44 202.919085 318.44 
Q 199.827882 318.44 198.315748 314.92566 
Q 196.806657 311.404059 196.806657 304.208375 
L 196.806657 283.899264 
z
" clip-path="url(#pe314cf4a80)" style="fill: #008000"/>
   </g>
   <g id="patch_15">
    <path d="M 221.918519 313.10019 
Q 220.895167 315.747012 219.788591 317.085812 
Q 218.682015 318.44 217.476802 318.44 
Q 213.882742 318.44 211.783638 308.406696 
Q 209.684535 298.373393 209.684535 281.215212 
Q 209.684535 263.995478 211.783638 253.977563 
Q 213.882742 243.944259 217.476802 243.944259 
Q 218.682015 243.944259 219.788591 245.298447 
Q 220.895167 246.637247 221.918519 249.284069 
L 221.918519 264.133974 
Q 220.88592 260.625396 219.884145 258.994215 
Q 218.88237 257.363033 217.775794 257.363033 
Q 215.790738 257.363033 214.653338 263.718485 
Q 213.519021 270.058548 213.519021 281.215212 
Q 213.519021 292.325711 214.653338 298.681163 
Q 215.790738 305.021226 217.775794 305.021226 
Q 218.88237 305.021226 219.884145 303.390044 
Q 220.88592 301.743475 221.918519 298.234896 
L 221.918519 313.10019 
z
" clip-path="url(#pe314cf4a80)" style="fill: #0000ff"/>
   </g>
   <g id="patch_16">
    <path d="M 222.562412 312.445747 
L 226.222567 312.445747 
L 226.222567 315.970222 
Q 226.222567 316.698554 226.797604 317.012317 
Q 227.372641 317.324819 228.674841 317.324819 
Q 229.986168 317.324819 230.561205 317.012317 
Q 231.136242 316.698554 231.136242 315.970222 
L 231.136242 312.445747 
L 234.796396 312.445747 
L 234.796396 315.970222 
Q 234.796396 317.218972 233.284263 317.830116 
Q 231.775171 318.44 228.674841 318.44 
Q 225.583638 318.44 224.071504 317.830116 
Q 222.562412 317.218972 222.562412 315.970222 
L 222.562412 312.445747 
z
" clip-path="url(#pe314cf4a80)" style="fill: #008000"/>
   </g>
   <g id="patch_17">
    <path d="M 247.674274 314.917587 
Q 246.650923 316.663567 245.544347 317.546708 
Q 244.437771 318.44 243.232558 318.44 
Q 239.638498 318.44 237.539394 311.821517 
Q 235.44029 305.203035 235.44029 293.884617 
Q 235.44029 282.525595 237.539394 275.917263 
Q 239.638498 269.298781 243.232558 269.298781 
Q 244.437771 269.298781 245.544347 270.192073 
Q 246.650923 271.075214 247.674274 272.821194 
L 247.674274 282.616955 
Q 246.641675 280.302516 245.639901 279.226505 
Q 244.638126 278.150494 243.53155 278.150494 
Q 241.546494 278.150494 240.409094 282.342876 
Q 239.274777 286.525108 239.274777 293.884617 
Q 239.274777 301.213673 240.409094 305.406055 
Q 241.546494 309.588287 243.53155 309.588287 
Q 244.638126 309.588287 245.639901 308.512276 
Q 246.641675 307.426114 247.674274 305.111675 
L 247.674274 314.917587 
z
" clip-path="url(#pe314cf4a80)" style="fill: #0000ff"/>
   </g>
   <g id="patch_18">
    <path d="M 248.318168 311.374259 
L 251.978323 311.374259 
L 251.978323 315.528742 
Q 251.978323 316.387266 252.55336 316.757115 
Q 253.128397 317.125478 254.430596 317.125478 
Q 255.741924 317.125478 256.31696 316.757115 
Q 256.891997 316.387266 256.891997 315.528742 
L 256.891997 311.374259 
L 260.552152 311.374259 
L 260.552152 315.528742 
Q 260.552152 317.00071 259.040018 317.721098 
Q 257.530927 318.44 254.430596 318.44 
Q 251.339393 318.44 249.827259 317.721098 
Q 248.318168 317.00071 248.318168 315.528742 
L 248.318168 311.374259 
z
" clip-path="url(#pe314cf4a80)" style="fill: #008000"/>
   </g>
   <g id="patch_19">
    <path d="M 273.43003 317.185936 
Q 272.196213 317.812968 270.869174 318.127916 
Q 269.542135 318.44 268.127357 318.44 
Q 264.9304 318.44 263.063223 316.57322 
Q 261.196046 314.70644 261.196046 311.514018 
Q 261.196046 308.284375 263.096125 306.431911 
Q 264.998945 304.579447 268.308317 304.579447 
Q 269.583262 304.579447 270.751276 304.831405 
Q 271.922031 305.080499 272.958438 305.572963 
L 272.958438 308.335911 
Q 271.889129 307.703153 270.830788 307.391069 
Q 269.772447 307.076121 268.708622 307.076121 
Q 266.739998 307.076121 265.673432 308.227111 
Q 264.606865 309.375238 264.606865 311.514018 
Q 264.606865 313.632756 265.635047 314.789472 
Q 266.663228 315.943325 268.555081 315.943325 
Q 269.070542 315.943325 269.511975 315.877473 
Q 269.953407 315.808757 270.30436 315.665599 
L 270.30436 313.071577 
L 268.289125 313.071577 
L 268.289125 310.761007 
L 273.43003 310.761007 
L 273.43003 317.185936 
z
" clip-path="url(#pe314cf4a80)" style="fill: #ffa500"/>
   </g>
   <g id="patch_20">
    <path d="M 286.307908 317.059499 
Q 285.074091 317.74975 283.747052 318.096451 
Q 282.420013 318.44 281.005235 318.44 
Q 277.808278 318.44 275.941101 316.385008 
Q 274.073924 314.330016 274.073924 310.815728 
Q 274.073924 307.260466 275.974003 305.221233 
Q 277.876823 303.182 281.186195 303.182 
Q 282.46114 303.182 283.629153 303.459361 
Q 284.799909 303.73357 285.836316 304.275685 
L 285.836316 307.317199 
Q 284.767007 306.620645 283.708666 306.277095 
Q 282.650325 305.930394 281.5865 305.930394 
Q 279.617876 305.930394 278.55131 307.197429 
Q 277.484743 308.461312 277.484743 310.815728 
Q 277.484743 313.148081 278.512924 314.421419 
Q 279.541105 315.691606 281.432959 315.691606 
Q 281.94842 315.691606 282.389853 315.619114 
Q 282.831285 315.54347 283.182237 315.385879 
L 283.182237 312.530322 
L 281.167002 312.530322 
L 281.167002 309.986797 
L 286.307908 309.986797 
L 286.307908 317.059499 
z
" clip-path="url(#pe314cf4a80)" style="fill: #ffa500"/>
   </g>
   <g id="patch_21">
    <path d="M 299.185786 315.89617 
Q 297.951968 317.168085 296.624929 317.806946 
Q 295.29789 318.44 293.883113 318.44 
Q 290.686155 318.44 288.818979 314.653294 
Q 286.951802 310.866589 286.951802 304.390857 
Q 286.951802 297.839624 288.85188 294.081958 
Q 290.754701 290.324291 294.064073 290.324291 
Q 295.339018 290.324291 296.507031 290.83538 
Q 297.677787 291.340662 298.714193 292.339608 
L 298.714193 297.944165 
Q 297.644885 296.660635 296.586544 296.027581 
Q 295.528203 295.38872 294.464378 295.38872 
Q 292.495754 295.38872 291.429188 297.723468 
Q 290.362621 300.052408 290.362621 304.390857 
Q 290.362621 308.688652 291.390802 311.035016 
Q 292.418983 313.375572 294.310837 313.375572 
Q 294.826298 313.375572 295.26773 313.241991 
Q 295.709163 313.102603 296.060115 312.812212 
L 296.060115 307.550317 
L 294.04488 307.550317 
L 294.04488 302.863398 
L 299.185786 302.863398 
L 299.185786 315.89617 
z
" clip-path="url(#pe314cf4a80)" style="fill: #ffa500"/>
   </g>
   <g id="patch_22">
    <path d="M 312.063664 317.655563 
Q 311.040312 318.044391 309.933736 318.241065 
Q 308.82716 318.44 307.621948 318.44 
Q 304.027887 318.44 301.928784 316.966073 
Q 299.82968 315.492146 299.82968 312.971549 
Q 299.82968 310.44191 301.928784 308.970244 
Q 304.027887 307.496317 307.621948 307.496317 
Q 308.82716 307.496317 309.933736 307.695252 
Q 311.040312 307.891926 312.063664 308.280753 
L 312.063664 310.462256 
Q 311.031065 309.946834 310.02929 309.707207 
Q 309.027515 309.467581 307.920939 309.467581 
Q 305.935883 309.467581 304.798483 310.401219 
Q 303.664166 311.332596 303.664166 312.971549 
Q 303.664166 314.60372 304.798483 315.537358 
Q 305.935883 316.468735 307.920939 316.468735 
Q 309.027515 316.468735 310.02929 316.229109 
Q 311.031065 315.987222 312.063664 315.4718 
L 312.063664 317.655563 
z
" clip-path="url(#pe314cf4a80)" style="fill: #0000ff"/>
   </g>
   <g id="patch_23">
    <path d="M 324.941542 313.37937 
Q 323.91819 315.887809 322.811614 317.156613 
Q 321.705038 318.44 320.499826 318.44 
Q 316.905765 318.44 314.806661 308.931266 
Q 312.707558 299.422531 312.707558 283.161429 
Q 312.707558 266.84199 314.806661 257.34784 
Q 316.905765 247.839105 320.499826 247.839105 
Q 321.705038 247.839105 322.811614 249.122493 
Q 323.91819 250.391296 324.941542 252.899735 
L 324.941542 266.973246 
Q 323.908943 263.648105 322.907168 262.102207 
Q 321.905393 260.556308 320.798817 260.556308 
Q 318.813761 260.556308 317.676361 266.579479 
Q 316.542044 272.588066 316.542044 283.161429 
Q 316.542044 293.691039 317.676361 299.71421 
Q 318.813761 305.722797 320.798817 305.722797 
Q 321.905393 305.722797 322.907168 304.176898 
Q 323.908943 302.616416 324.941542 299.291276 
L 324.941542 313.37937 
z
" clip-path="url(#pe314cf4a80)" style="fill: #0000ff"/>
   </g>
   <g id="patch_24">
    <path d="M 334.059927 309.917114 
L 329.354933 309.917114 
L 328.61204 318.44 
L 325.585435 318.44 
L 329.907726 271.65437 
L 333.497129 271.65437 
L 337.819419 318.44 
L 334.795317 318.44 
L 334.059927 309.917114 
z
M 330.105331 301.233798 
L 333.302025 301.233798 
L 331.706179 282.623826 
L 330.105331 301.233798 
z
" clip-path="url(#pe314cf4a80)" style="fill: #ff0000"/>
   </g>
   <g id="patch_25">
    <path d="M 338.463313 254.937576 
L 342.123468 254.937576 
L 342.123468 292.275453 
Q 342.123468 299.991324 342.698505 303.31529 
Q 343.273542 306.625906 344.575742 306.625906 
Q 345.887069 306.625906 346.462106 303.31529 
Q 347.037142 299.991324 347.037142 292.275453 
L 347.037142 254.937576 
L 350.697297 254.937576 
L 350.697297 292.275453 
Q 350.697297 305.504568 349.185163 311.978959 
Q 347.676072 318.44 344.575742 318.44 
Q 341.484538 318.44 339.972405 311.978959 
Q 338.463313 305.504568 338.463313 292.275453 
L 338.463313 254.937576 
z
" clip-path="url(#pe314cf4a80)" style="fill: #008000"/>
   </g>
   <g id="patch_26">
    <path d="M 363.575175 315.389418 
Q 362.341358 316.914709 361.014319 317.680837 
Q 359.68728 318.44 358.272503 318.44 
Q 355.075545 318.44 353.208368 313.898951 
Q 351.341191 309.357902 351.341191 301.592151 
Q 351.341191 293.735857 353.24127 289.229632 
Q 355.14409 284.723407 358.453462 284.723407 
Q 359.728407 284.723407 360.896421 285.33631 
Q 362.067176 285.942247 363.103583 287.140193 
L 363.103583 293.861224 
Q 362.034274 292.322003 360.975933 291.56284 
Q 359.917592 290.796712 358.853768 290.796712 
Q 356.885144 290.796712 355.818577 293.596561 
Q 354.752011 296.389446 354.752011 301.592151 
Q 354.752011 306.746102 355.780192 309.559881 
Q 356.808373 312.366695 358.700226 312.366695 
Q 359.215687 312.366695 359.65712 312.206505 
Q 360.098552 312.03935 360.449505 311.69111 
L 360.449505 305.381002 
L 358.43427 305.381002 
L 358.43427 299.760409 
L 363.575175 299.760409 
L 363.575175 315.389418 
z
" clip-path="url(#pe314cf4a80)" style="fill: #ffa500"/>
   </g>
   <g id="patch_27">
    <path d="M 376.453053 308.924161 
Q 375.429701 313.640946 374.323125 316.026761 
Q 373.216549 318.44 372.011337 318.44 
Q 368.417277 318.44 366.318173 300.560094 
Q 364.219069 282.680189 364.219069 252.103356 
Q 364.219069 221.416831 366.318173 203.564348 
Q 368.417277 185.684443 372.011337 185.684443 
Q 373.216549 185.684443 374.323125 188.097681 
Q 375.429701 190.483497 376.453053 195.200282 
L 376.453053 221.663639 
Q 375.420454 215.411157 374.418679 212.504301 
Q 373.416904 209.597445 372.310328 209.597445 
Q 370.325273 209.597445 369.187873 220.923214 
Q 368.053555 232.221559 368.053555 252.103356 
Q 368.053555 271.902883 369.187873 283.228652 
Q 370.325273 294.526997 372.310328 294.526997 
Q 373.416904 294.526997 374.418679 291.620141 
Q 375.420454 288.685862 376.453053 282.43338 
L 376.453053 308.924161 
z
" clip-path="url(#pe314cf4a80)" style="fill: #0000ff"/>
   </g>
   <g id="patch_28">
    <path d="M 385.571438 299.963615 
L 380.866445 299.963615 
L 380.123551 318.44 
L 377.096947 318.44 
L 381.419238 217.015516 
L 385.00864 217.015516 
L 389.330931 318.44 
L 386.306828 318.44 
L 385.571438 299.963615 
z
M 381.616842 281.13944 
L 384.813537 281.13944 
L 383.217691 240.79571 
L 381.616842 281.13944 
z
" clip-path="url(#pe314cf4a80)" style="fill: #ff0000"/>
   </g>
   <g id="patch_29">
    <path d="M 402.208809 317.525258 
Q 401.185457 317.978675 400.078881 318.208019 
Q 398.972305 318.44 397.767093 318.44 
Q 394.173032 318.44 392.073929 316.721234 
Q 389.974825 315.002467 389.974825 312.063166 
Q 389.974825 309.11332 392.073929 307.39719 
Q 394.173032 305.678424 397.767093 305.678424 
Q 398.972305 305.678424 400.078881 305.910405 
Q 401.185457 306.139749 402.208809 306.593166 
L 402.208809 309.137046 
Q 401.17621 308.536005 400.174435 308.256573 
Q 399.17266 307.977142 398.066084 307.977142 
Q 396.081028 307.977142 394.943629 309.06587 
Q 393.809311 310.151961 393.809311 312.063166 
Q 393.809311 313.966463 394.943629 315.05519 
Q 396.081028 316.141282 398.066084 316.141282 
Q 399.17266 316.141282 400.174435 315.861851 
Q 401.17621 315.579783 402.208809 314.978742 
L 402.208809 317.525258 
z
" clip-path="url(#pe314cf4a80)" style="fill: #0000ff"/>
   </g>
   <g id="patch_30">
    <path d="M 415.086687 311.309116 
Q 414.063335 314.843733 412.956759 316.631591 
Q 411.850183 318.44 410.644971 318.44 
Q 407.05091 318.44 404.951807 305.041337 
Q 402.852703 291.642673 402.852703 268.729315 
Q 402.852703 245.733756 404.951807 232.355643 
Q 407.05091 218.956979 410.644971 218.956979 
Q 411.850183 218.956979 412.956759 220.765388 
Q 414.063335 222.553246 415.086687 226.087863 
L 415.086687 245.918707 
Q 414.054088 241.233285 413.052313 239.054974 
Q 412.050538 236.876664 410.943962 236.876664 
Q 408.958906 236.876664 407.821506 245.363854 
Q 406.687189 253.830494 406.687189 268.729315 
Q 406.687189 283.566485 407.821506 292.053675 
Q 408.958906 300.520315 410.943962 300.520315 
Q 412.050538 300.520315 413.052313 298.342005 
Q 414.054088 296.143145 415.086687 291.457722 
L 415.086687 311.309116 
z
" clip-path="url(#pe314cf4a80)" style="fill: #0000ff"/>
   </g>
   <g id="patch_31">
    <path d="M 427.964565 311.421226 
Q 426.730747 314.930613 425.403708 316.693319 
Q 424.076669 318.44 422.661892 318.44 
Q 419.464934 318.44 417.597757 307.991962 
Q 415.730581 297.543925 415.730581 279.676499 
Q 415.730581 261.600753 417.630659 251.232838 
Q 419.53348 240.864924 422.842852 240.864924 
Q 424.117796 240.864924 425.28581 242.275088 
Q 426.456566 243.669228 427.492972 246.425459 
L 427.492972 261.889196 
Q 426.423664 258.34776 425.365323 256.601079 
Q 424.306982 254.838373 423.243157 254.838373 
Q 421.274533 254.838373 420.207966 261.280261 
Q 419.1414 267.706125 419.1414 279.676499 
Q 419.1414 291.534701 420.169581 298.008638 
Q 421.197762 304.466551 423.089615 304.466551 
Q 423.605077 304.466551 424.046509 304.097985 
Q 424.487942 303.713395 424.838894 302.912165 
L 424.838894 288.39388 
L 422.823659 288.39388 
L 422.823659 275.46203 
L 427.964565 275.46203 
L 427.964565 311.421226 
z
" clip-path="url(#pe314cf4a80)" style="fill: #ffa500"/>
   </g>
   <g id="patch_32">
    <path d="M 437.08295 316.411086 
L 432.377956 316.411086 
L 431.635063 318.44 
L 428.608458 318.44 
L 432.930749 307.302458 
L 436.520152 307.302458 
L 440.842442 318.44 
L 437.81834 318.44 
L 437.08295 316.411086 
z
M 433.128354 314.343982 
L 436.325048 314.343982 
L 434.729202 309.913789 
L 433.128354 314.343982 
z
" clip-path="url(#pe314cf4a80)" style="fill: #ff0000"/>
   </g>
   <g id="patch_33">
    <path d="M 453.72032 317.65802 
Q 452.696969 318.04563 451.590393 318.241688 
Q 450.483817 318.44 449.278604 318.44 
Q 445.684544 318.44 443.58544 316.970688 
Q 441.486336 315.501377 441.486336 312.988674 
Q 441.486336 310.466957 443.58544 308.999899 
Q 445.684544 307.530587 449.278604 307.530587 
Q 450.483817 307.530587 451.590393 307.728899 
Q 452.696969 307.924958 453.72032 308.312568 
L 453.72032 310.487239 
Q 452.687722 309.973431 451.685947 309.734555 
Q 450.684172 309.495679 449.577596 309.495679 
Q 447.59254 309.495679 446.45514 310.426393 
Q 445.320823 311.354854 445.320823 312.988674 
Q 445.320823 314.615734 446.45514 315.546448 
Q 447.59254 316.474909 449.577596 316.474909 
Q 450.684172 316.474909 451.685947 316.236033 
Q 452.687722 315.994903 453.72032 315.481095 
L 453.72032 317.65802 
z
" clip-path="url(#pe314cf4a80)" style="fill: #0000ff"/>
   </g>
   <g id="patch_34">
    <path d="M 466.598198 316.185145 
Q 465.574847 317.302826 464.468271 317.868164 
Q 463.361694 318.44 462.156482 318.44 
Q 458.562422 318.44 456.463318 314.203213 
Q 454.364214 309.966425 454.364214 302.720999 
Q 454.364214 295.449581 456.463318 291.219292 
Q 458.562422 286.982504 462.156482 286.982504 
Q 463.361694 286.982504 464.468271 287.554341 
Q 465.574847 288.119679 466.598198 289.237359 
L 466.598198 295.508064 
Q 465.565599 294.026488 464.563824 293.337685 
Q 463.562049 292.648883 462.455473 292.648883 
Q 460.470418 292.648883 459.333018 295.332614 
Q 458.198701 298.009848 458.198701 302.720999 
Q 458.198701 307.412656 459.333018 310.096388 
Q 460.470418 312.773622 462.455473 312.773622 
Q 463.562049 312.773622 464.563824 312.084819 
Q 465.565599 311.389518 466.598198 309.907942 
L 466.598198 316.185145 
z
" clip-path="url(#pe314cf4a80)" style="fill: #0000ff"/>
   </g>
   <g id="patch_35">
    <path d="M 475.716584 299.314898 
L 471.01159 299.314898 
L 470.268696 318.44 
L 467.242092 318.44 
L 471.564383 213.454438 
L 475.153785 213.454438 
L 479.476076 318.44 
L 476.451973 318.44 
L 475.716584 299.314898 
z
M 471.761988 279.829793 
L 474.958682 279.829793 
L 473.362836 238.06957 
L 471.761988 279.829793 
z
" clip-path="url(#pe314cf4a80)" style="fill: #ff0000"/>
   </g>
   <g id="patch_36">
    <path d="M 492.353954 300.712547 
Q 491.120137 309.576274 489.793098 314.028374 
Q 488.466059 318.44 487.051281 318.44 
Q 483.854324 318.44 481.987147 292.051189 
Q 480.11997 265.662379 480.11997 220.534275 
Q 480.11997 174.880013 482.020049 148.693571 
Q 483.922869 122.507128 487.232241 122.507128 
Q 488.507186 122.507128 489.6752 126.068808 
Q 490.845955 129.590015 491.882362 136.55148 
L 491.882362 175.608539 
Q 490.813053 166.663865 489.754712 162.252239 
Q 488.696371 157.800139 487.632546 157.800139 
Q 485.663922 157.800139 484.597356 174.070541 
Q 483.530789 190.300469 483.530789 220.534275 
Q 483.530789 250.484765 484.55897 266.836114 
Q 485.587152 283.146989 487.479005 283.146989 
Q 487.994466 283.146989 488.435899 282.216096 
Q 488.877331 281.244729 489.228283 279.221047 
L 489.228283 242.551933 
L 487.213049 242.551933 
L 487.213049 209.889708 
L 492.353954 209.889708 
L 492.353954 300.712547 
z
" clip-path="url(#pe314cf4a80)" style="fill: #ffa500"/>
   </g>
   <g id="patch_37">
    <path d="M 505.231832 293.102772 
Q 503.998015 305.771386 502.670975 312.134617 
Q 501.343936 318.44 499.929159 318.44 
Q 496.732202 318.44 494.865025 280.723396 
Q 492.997848 243.006792 492.997848 178.506771 
Q 492.997848 113.254732 494.897926 75.827366 
Q 496.800747 38.4 500.110119 38.4 
Q 501.385064 38.4 502.553077 43.490585 
Q 503.723833 48.523322 504.760239 58.473101 
L 504.760239 114.295988 
Q 503.690931 101.511679 502.63259 95.206296 
Q 501.574249 88.843065 500.510424 88.843065 
Q 498.5418 88.843065 497.475234 112.097781 
Q 496.408667 135.29465 496.408667 178.506771 
Q 496.408667 221.31396 497.436848 244.684371 
Q 498.465029 267.996935 500.356883 267.996935 
Q 500.872344 267.996935 501.313776 266.666441 
Q 501.755209 265.2781 502.106161 262.385722 
L 502.106161 209.97584 
L 500.090926 209.97584 
L 500.090926 163.292865 
L 505.231832 163.292865 
L 505.231832 293.102772 
z
" clip-path="url(#pe314cf4a80)" style="fill: #ffa500"/>
   </g>
   <g id="patch_38">
    <path d="M 514.350217 312.595415 
L 509.645224 312.595415 
L 508.90233 318.44 
L 505.875726 318.44 
L 510.198017 286.356664 
L 513.787419 286.356664 
L 518.10971 318.44 
L 515.085607 318.44 
L 514.350217 312.595415 
z
M 510.395621 306.640814 
L 513.592316 306.640814 
L 511.99647 293.87899 
L 510.395621 306.640814 
z
" clip-path="url(#pe314cf4a80)" style="fill: #ff0000"/>
   </g>
   <g id="patch_39">
    <path d="M 518.753604 40.31603 
L 522.413758 40.31603 
L 522.413758 203.846142 
Q 522.413758 237.639637 522.988795 252.197734 
Q 523.563832 266.697365 524.866032 266.697365 
Q 526.177359 266.697365 526.752396 252.197734 
Q 527.327433 237.639637 527.327433 203.846142 
L 527.327433 40.31603 
L 530.987588 40.31603 
L 530.987588 203.846142 
Q 530.987588 261.7862 529.475454 290.142333 
Q 527.966362 318.44 524.866032 318.44 
Q 521.774829 318.44 520.262695 290.142333 
Q 518.753604 261.7862 518.753604 203.846142 
L 518.753604 40.31603 
z
" clip-path="url(#pe314cf4a80)" style="fill: #008000"/>
   </g>
   <g id="patch_40">
    <path d="M 540.105973 315.332842 
L 535.400979 315.332842 
L 534.658086 318.44 
L 531.631481 318.44 
L 535.953772 301.383529 
L 539.543175 301.383529 
L 543.865465 318.44 
L 540.841363 318.44 
L 540.105973 315.332842 
z
M 536.151377 312.167196 
L 539.348071 312.167196 
L 537.752225 305.382625 
L 536.151377 312.167196 
z
" clip-path="url(#pe314cf4a80)" style="fill: #ff0000"/>
   </g>
   <g id="patch_41">
    <path d="M 544.509359 311.519691 
L 548.169514 311.519691 
L 548.169514 315.588664 
Q 548.169514 316.429517 548.744551 316.791753 
Q 549.319588 317.152535 550.621788 317.152535 
Q 551.933115 317.152535 552.508152 316.791753 
Q 553.083188 316.429517 553.083188 315.588664 
L 553.083188 311.519691 
L 556.743343 311.519691 
L 556.743343 315.588664 
Q 556.743343 317.030334 555.23121 317.735895 
Q 553.722118 318.44 550.621788 318.44 
Q 547.530584 318.44 546.018451 317.735895 
Q 544.509359 317.030334 544.509359 315.588664 
L 544.509359 311.519691 
z
" clip-path="url(#pe314cf4a80)" style="fill: #008000"/>
   </g>
   <g id="patch_42">
    <path d="M 557.387237 269.646216 
L 561.047392 269.646216 
L 561.047392 298.335771 
Q 561.047392 304.264467 561.622429 306.818525 
Q 562.197466 309.362325 563.499665 309.362325 
Q 564.810993 309.362325 565.38603 306.818525 
Q 565.961066 304.264467 565.961066 298.335771 
L 565.961066 269.646216 
L 569.621221 269.646216 
L 569.621221 298.335771 
Q 569.621221 308.500715 568.109087 313.475486 
Q 566.599996 318.44 563.499665 318.44 
Q 560.408462 318.44 558.896329 313.475486 
Q 557.387237 308.500715 557.387237 298.335771 
L 557.387237 269.646216 
z
" clip-path="url(#pe314cf4a80)" style="fill: #008000"/>
   </g>
   <g id="patch_43">
    <path d="M 570.265115 254.044814 
L 573.92527 254.044814 
L 573.92527 291.907613 
Q 573.92527 299.73196 574.500307 303.102656 
Q 575.075344 306.459815 576.377543 306.459815 
Q 577.688871 306.459815 578.263907 303.102656 
Q 578.838944 299.73196 578.838944 291.907613 
L 578.838944 254.044814 
L 582.499099 254.044814 
L 582.499099 291.907613 
Q 582.499099 305.322713 580.986965 311.888125 
Q 579.477874 318.44 576.377543 318.44 
Q 573.28634 318.44 571.774206 311.888125 
Q 570.265115 305.322713 570.265115 291.907613 
L 570.265115 254.044814 
z
" clip-path="url(#pe314cf4a80)" style="fill: #008000"/>
   </g>
   <g id="patch_44">
    <path d="M 595.376977 303.842593 
Q 594.14316 311.141297 592.816121 314.807312 
Q 591.489082 318.44 590.074304 318.44 
Q 586.877347 318.44 585.01017 296.710527 
Q 583.142993 274.981053 583.142993 237.820988 
Q 583.142993 200.227666 585.043072 178.66483 
Q 586.945892 157.101993 590.255264 157.101993 
Q 591.530209 157.101993 592.698223 160.034806 
Q 593.868978 162.934291 594.905385 168.666606 
L 594.905385 200.827559 
Q 593.836076 193.462201 592.777735 189.829513 
Q 591.719394 186.163498 590.655569 186.163498 
Q 588.686945 186.163498 587.620379 199.561118 
Q 586.553812 212.92541 586.553812 237.820988 
Q 586.553812 262.483273 587.581993 275.947548 
Q 588.610175 289.378496 590.502028 289.378496 
Q 591.017489 289.378496 591.458922 288.611965 
Q 591.900354 287.812107 592.251306 286.145737 
L 592.251306 255.9511 
L 590.236072 255.9511 
L 590.236072 229.055878 
L 595.376977 229.055878 
L 595.376977 303.842593 
z
" clip-path="url(#pe314cf4a80)" style="fill: #ffa500"/>
   </g>
   <g id="patch_45">
    <path d="M 604.495362 316.343658 
L 599.790369 316.343658 
L 599.047475 318.44 
L 596.020871 318.44 
L 600.343162 306.932313 
L 603.932564 306.932313 
L 608.254855 318.44 
L 605.230752 318.44 
L 604.495362 316.343658 
z
M 600.540766 314.207855 
L 603.737461 314.207855 
L 602.141615 309.630429 
L 600.540766 314.207855 
z
" clip-path="url(#pe314cf4a80)" style="fill: #ff0000"/>
   </g>
   <g id="patch_46">
    <path d="M 617.37324 291.625513 
L 612.668247 291.625513 
L 611.925353 318.44 
L 608.898749 318.44 
L 613.22104 171.24424 
L 616.810442 171.24424 
L 621.132733 318.44 
L 618.10863 318.44 
L 617.37324 291.625513 
z
M 613.418644 264.306283 
L 616.615339 264.306283 
L 615.019493 205.756062 
L 613.418644 264.306283 
z
" clip-path="url(#pe314cf4a80)" style="fill: #ff0000"/>
   </g>
   <g id="patch_47">
    <path d="M 630.251118 291.160863 
L 625.546124 291.160863 
L 624.803231 318.44 
L 621.776627 318.44 
L 626.098917 168.693585 
L 629.68832 168.693585 
L 634.010611 318.44 
L 630.986508 318.44 
L 630.251118 291.160863 
z
M 626.296522 263.368236 
L 629.493216 263.368236 
L 627.897371 203.803438 
L 626.296522 263.368236 
z
" clip-path="url(#pe314cf4a80)" style="fill: #ff0000"/>
   </g>
   <g id="patch_48">
    <path d="M 634.654505 177.891976 
L 638.314659 177.891976 
L 638.314659 260.530787 
Q 638.314659 277.608096 638.889696 284.964929 
Q 639.464733 292.292217 640.766933 292.292217 
Q 642.07826 292.292217 642.653297 284.964929 
Q 643.228334 277.608096 643.228334 260.530787 
L 643.228334 177.891976 
L 646.888488 177.891976 
L 646.888488 260.530787 
Q 646.888488 289.810394 645.376355 304.13997 
Q 643.867263 318.44 640.766933 318.44 
Q 637.67573 318.44 636.163596 304.13997 
Q 634.654505 289.810394 634.654505 260.530787 
L 634.654505 177.891976 
z
" clip-path="url(#pe314cf4a80)" style="fill: #008000"/>
   </g>
   <g id="patch_49">
    <path d="M 647.532382 278.634281 
L 651.192537 278.634281 
L 651.192537 302.039073 
Q 651.192537 306.875673 651.767574 308.95926 
Q 652.342611 311.034479 653.644811 311.034479 
Q 654.956138 311.034479 655.531175 308.95926 
Q 656.106211 306.875673 656.106211 302.039073 
L 656.106211 278.634281 
L 659.766366 278.634281 
L 659.766366 302.039073 
Q 659.766366 310.331582 658.254233 314.389975 
Q 656.745141 318.44 653.644811 318.44 
Q 650.553607 318.44 649.041474 314.389975 
Q 647.532382 310.331582 647.532382 302.039073 
L 647.532382 278.634281 
z
" clip-path="url(#pe314cf4a80)" style="fill: #008000"/>
   </g>
   <g id="patch_50">
    <path d="M 668.884752 306.044426 
L 664.179758 306.044426 
L 663.436864 318.44 
L 660.41026 318.44 
L 664.732551 250.395593 
L 668.321953 250.395593 
L 672.644244 318.44 
L 669.620141 318.44 
L 668.884752 306.044426 
z
M 664.930156 293.415524 
L 668.12685 293.415524 
L 666.531004 266.349425 
L 664.930156 293.415524 
z
" clip-path="url(#pe314cf4a80)" style="fill: #ff0000"/>
   </g>
   <g id="patch_51">
    <path d="M 685.522122 313.944201 
Q 684.49877 316.172666 683.392194 317.299855 
Q 682.285618 318.44 681.080406 318.44 
Q 677.486346 318.44 675.387242 309.992563 
Q 673.288138 301.545125 673.288138 287.098971 
Q 673.288138 272.600992 675.387242 264.16651 
Q 677.486346 255.719073 681.080406 255.719073 
Q 682.285618 255.719073 683.392194 256.859218 
Q 684.49877 257.986407 685.522122 260.214872 
L 685.522122 272.717597 
Q 684.489523 269.763585 683.487748 268.390229 
Q 682.485973 267.016873 681.379397 267.016873 
Q 679.394342 267.016873 678.256942 272.36778 
Q 677.122624 277.705731 677.122624 287.098971 
Q 677.122624 296.453342 678.256942 301.804249 
Q 679.394342 307.1422 681.379397 307.1422 
Q 682.485973 307.1422 683.487748 305.768844 
Q 684.489523 304.382531 685.522122 301.428519 
L 685.522122 313.944201 
z
" clip-path="url(#pe314cf4a80)" style="fill: #0000ff"/>
   </g>
   <g id="patch_52">
    <path d="M 686.166016 284.417514 
L 689.826171 284.417514 
L 689.826171 304.421906 
Q 689.826171 308.555813 690.401208 310.336683 
Q 690.976244 312.110401 692.278444 312.110401 
Q 693.589772 312.110401 694.164808 310.336683 
Q 694.739845 308.555813 694.739845 304.421906 
L 694.739845 284.417514 
L 698.4 284.417514 
L 698.4 304.421906 
Q 698.4 311.509626 696.887866 314.978389 
Q 695.378775 318.44 692.278444 318.44 
Q 689.187241 318.44 687.675107 314.978389 
Q 686.166016 311.509626 686.166016 304.421906 
L 686.166016 284.417514 
z
" clip-path="url(#pe314cf4a80)" style="fill: #008000"/>
   </g>
   <g id="matplotlib.axis_1">
    <g id="xtick_1">
     <g id="line2d_2">
      <defs>
       <path id="m2d778a86f8" d="M 0 0 
L 0 3.5 
" style="stroke: #000000; stroke-width: 0.8"/>
      </defs>
      <g>
       <use xlink:href="#m2d778a86f8" x="61.266992" y="318.44" style="stroke: #000000; stroke-width: 0.8"/>
      </g>
     </g>
     <g id="text_1">
      <!-- 0 -->
      <g transform="translate(57.449492 334.558125) scale(0.12 -0.12)">
       <defs>
        <path id="DejaVuSans-30" d="M 2034 4250 
Q 1547 4250 1301 3770 
Q 1056 3291 1056 2328 
Q 1056 1369 1301 889 
Q 1547 409 2034 409 
Q 2525 409 2770 889 
Q 3016 1369 3016 2328 
Q 3016 3291 2770 3770 
Q 2525 4250 2034 4250 
z
M 2034 4750 
Q 2819 4750 3233 4129 
Q 3647 3509 3647 2328 
Q 3647 1150 3233 529 
Q 2819 -91 2034 -91 
Q 1250 -91 836 529 
Q 422 1150 422 2328 
Q 422 3509 836 4129 
Q 1250 4750 2034 4750 
z
" transform="scale(0.015625)"/>
       </defs>
       <use xlink:href="#DejaVuSans-30"/>
      </g>
     </g>
    </g>
    <g id="xtick_2">
     <g id="line2d_3">
      <g>
       <use xlink:href="#m2d778a86f8" x="190.045771" y="318.44" style="stroke: #000000; stroke-width: 0.8"/>
      </g>
     </g>
     <g id="text_2">
      <!-- 10 -->
      <g transform="translate(182.410771 334.558125) scale(0.12 -0.12)">
       <defs>
        <path id="DejaVuSans-31" d="M 794 531 
L 1825 531 
L 1825 4091 
L 703 3866 
L 703 4441 
L 1819 4666 
L 2450 4666 
L 2450 531 
L 3481 531 
L 3481 0 
L 794 0 
L 794 531 
z
" transform="scale(0.015625)"/>
       </defs>
       <use xlink:href="#DejaVuSans-31"/>
       <use xlink:href="#DejaVuSans-30" x="63.623047"/>
      </g>
     </g>
    </g>
    <g id="xtick_3">
     <g id="line2d_4">
      <g>
       <use xlink:href="#m2d778a86f8" x="318.82455" y="318.44" style="stroke: #000000; stroke-width: 0.8"/>
      </g>
     </g>
     <g id="text_3">
      <!-- 20 -->
      <g transform="translate(311.18955 334.558125) scale(0.12 -0.12)">
       <defs>
        <path id="DejaVuSans-32" d="M 1228 531 
L 3431 531 
L 3431 0 
L 469 0 
L 469 531 
Q 828 903 1448 1529 
Q 2069 2156 2228 2338 
Q 2531 2678 2651 2914 
Q 2772 3150 2772 3378 
Q 2772 3750 2511 3984 
Q 2250 4219 1831 4219 
Q 1534 4219 1204 4116 
Q 875 4013 500 3803 
L 500 4441 
Q 881 4594 1212 4672 
Q 1544 4750 1819 4750 
Q 2544 4750 2975 4387 
Q 3406 4025 3406 3419 
Q 3406 3131 3298 2873 
Q 3191 2616 2906 2266 
Q 2828 2175 2409 1742 
Q 1991 1309 1228 531 
z
" transform="scale(0.015625)"/>
       </defs>
       <use xlink:href="#DejaVuSans-32"/>
       <use xlink:href="#DejaVuSans-30" x="63.623047"/>
      </g>
     </g>
    </g>
    <g id="xtick_4">
     <g id="line2d_5">
      <g>
       <use xlink:href="#m2d778a86f8" x="447.603328" y="318.44" style="stroke: #000000; stroke-width: 0.8"/>
      </g>
     </g>
     <g id="text_4">
      <!-- 30 -->
      <g transform="translate(439.968328 334.558125) scale(0.12 -0.12)">
       <defs>
        <path id="DejaVuSans-33" d="M 2597 2516 
Q 3050 2419 3304 2112 
Q 3559 1806 3559 1356 
Q 3559 666 3084 287 
Q 2609 -91 1734 -91 
Q 1441 -91 1130 -33 
Q 819 25 488 141 
L 488 750 
Q 750 597 1062 519 
Q 1375 441 1716 441 
Q 2309 441 2620 675 
Q 2931 909 2931 1356 
Q 2931 1769 2642 2001 
Q 2353 2234 1838 2234 
L 1294 2234 
L 1294 2753 
L 1863 2753 
Q 2328 2753 2575 2939 
Q 2822 3125 2822 3475 
Q 2822 3834 2567 4026 
Q 2313 4219 1838 4219 
Q 1578 4219 1281 4162 
Q 984 4106 628 3988 
L 628 4550 
Q 988 4650 1302 4700 
Q 1616 4750 1894 4750 
Q 2613 4750 3031 4423 
Q 3450 4097 3450 3541 
Q 3450 3153 3228 2886 
Q 3006 2619 2597 2516 
z
" transform="scale(0.015625)"/>
       </defs>
       <use xlink:href="#DejaVuSans-33"/>
       <use xlink:href="#DejaVuSans-30" x="63.623047"/>
      </g>
     </g>
    </g>
    <g id="xtick_5">
     <g id="line2d_6">
      <g>
       <use xlink:href="#m2d778a86f8" x="576.382107" y="318.44" style="stroke: #000000; stroke-width: 0.8"/>
      </g>
     </g>
     <g id="text_5">
      <!-- 40 -->
      <g transform="translate(568.747107 334.558125) scale(0.12 -0.12)">
       <defs>
        <path id="DejaVuSans-34" d="M 2419 4116 
L 825 1625 
L 2419 1625 
L 2419 4116 
z
M 2253 4666 
L 3047 4666 
L 3047 1625 
L 3713 1625 
L 3713 1100 
L 3047 1100 
L 3047 0 
L 2419 0 
L 2419 1100 
L 313 1100 
L 313 1709 
L 2253 4666 
z
" transform="scale(0.015625)"/>
       </defs>
       <use xlink:href="#DejaVuSans-34"/>
       <use xlink:href="#DejaVuSans-30" x="63.623047"/>
      </g>
     </g>
    </g>
   </g>
   <g id="matplotlib.axis_2">
    <g id="ytick_1">
     <g id="line2d_7">
      <defs>
       <path id="mdab89a21d3" d="M 0 0 
L -3.5 0 
" style="stroke: #000000; stroke-width: 0.8"/>
      </defs>
      <g>
       <use xlink:href="#mdab89a21d3" x="55.15" y="318.44" style="stroke: #000000; stroke-width: 0.8"/>
      </g>
     </g>
     <g id="text_6">
      <!-- 0.00 -->
      <g transform="translate(21.43125 322.999062) scale(0.12 -0.12)">
       <defs>
        <path id="DejaVuSans-2e" d="M 684 794 
L 1344 794 
L 1344 0 
L 684 0 
L 684 794 
z
" transform="scale(0.015625)"/>
       </defs>
       <use xlink:href="#DejaVuSans-30"/>
       <use xlink:href="#DejaVuSans-2e" x="63.623047"/>
       <use xlink:href="#DejaVuSans-30" x="95.410156"/>
       <use xlink:href="#DejaVuSans-30" x="159.033203"/>
      </g>
     </g>
    </g>
    <g id="ytick_2">
     <g id="line2d_8">
      <g>
       <use xlink:href="#mdab89a21d3" x="55.15" y="283.959141" style="stroke: #000000; stroke-width: 0.8"/>
      </g>
     </g>
     <g id="text_7">
      <!-- 0.01 -->
      <g transform="translate(21.43125 288.518204) scale(0.12 -0.12)">
       <use xlink:href="#DejaVuSans-30"/>
       <use xlink:href="#DejaVuSans-2e" x="63.623047"/>
       <use xlink:href="#DejaVuSans-30" x="95.410156"/>
       <use xlink:href="#DejaVuSans-31" x="159.033203"/>
      </g>
     </g>
    </g>
    <g id="ytick_3">
     <g id="line2d_9">
      <g>
       <use xlink:href="#mdab89a21d3" x="55.15" y="249.478282" style="stroke: #000000; stroke-width: 0.8"/>
      </g>
     </g>
     <g id="text_8">
      <!-- 0.02 -->
      <g transform="translate(21.43125 254.037345) scale(0.12 -0.12)">
       <use xlink:href="#DejaVuSans-30"/>
       <use xlink:href="#DejaVuSans-2e" x="63.623047"/>
       <use xlink:href="#DejaVuSans-30" x="95.410156"/>
       <use xlink:href="#DejaVuSans-32" x="159.033203"/>
      </g>
     </g>
    </g>
    <g id="ytick_4">
     <g id="line2d_10">
      <g>
       <use xlink:href="#mdab89a21d3" x="55.15" y="214.997424" style="stroke: #000000; stroke-width: 0.8"/>
      </g>
     </g>
     <g id="text_9">
      <!-- 0.03 -->
      <g transform="translate(21.43125 219.556486) scale(0.12 -0.12)">
       <use xlink:href="#DejaVuSans-30"/>
       <use xlink:href="#DejaVuSans-2e" x="63.623047"/>
       <use xlink:href="#DejaVuSans-30" x="95.410156"/>
       <use xlink:href="#DejaVuSans-33" x="159.033203"/>
      </g>
     </g>
    </g>
    <g id="ytick_5">
     <g id="line2d_11">
      <g>
       <use xlink:href="#mdab89a21d3" x="55.15" y="180.516565" style="stroke: #000000; stroke-width: 0.8"/>
      </g>
     </g>
     <g id="text_10">
      <!-- 0.04 -->
      <g transform="translate(21.43125 185.075627) scale(0.12 -0.12)">
       <use xlink:href="#DejaVuSans-30"/>
       <use xlink:href="#DejaVuSans-2e" x="63.623047"/>
       <use xlink:href="#DejaVuSans-30" x="95.410156"/>
       <use xlink:href="#DejaVuSans-34" x="159.033203"/>
      </g>
     </g>
    </g>
    <g id="ytick_6">
     <g id="line2d_12">
      <g>
       <use xlink:href="#mdab89a21d3" x="55.15" y="146.035706" style="stroke: #000000; stroke-width: 0.8"/>
      </g>
     </g>
     <g id="text_11">
      <!-- 0.05 -->
      <g transform="translate(21.43125 150.594768) scale(0.12 -0.12)">
       <defs>
        <path id="DejaVuSans-35" d="M 691 4666 
L 3169 4666 
L 3169 4134 
L 1269 4134 
L 1269 2991 
Q 1406 3038 1543 3061 
Q 1681 3084 1819 3084 
Q 2600 3084 3056 2656 
Q 3513 2228 3513 1497 
Q 3513 744 3044 326 
Q 2575 -91 1722 -91 
Q 1428 -91 1123 -41 
Q 819 9 494 109 
L 494 744 
Q 775 591 1075 516 
Q 1375 441 1709 441 
Q 2250 441 2565 725 
Q 2881 1009 2881 1497 
Q 2881 1984 2565 2268 
Q 2250 2553 1709 2553 
Q 1456 2553 1204 2497 
Q 953 2441 691 2322 
L 691 4666 
z
" transform="scale(0.015625)"/>
       </defs>
       <use xlink:href="#DejaVuSans-30"/>
       <use xlink:href="#DejaVuSans-2e" x="63.623047"/>
       <use xlink:href="#DejaVuSans-30" x="95.410156"/>
       <use xlink:href="#DejaVuSans-35" x="159.033203"/>
      </g>
     </g>
    </g>
    <g id="ytick_7">
     <g id="line2d_13">
      <g>
       <use xlink:href="#mdab89a21d3" x="55.15" y="111.554847" style="stroke: #000000; stroke-width: 0.8"/>
      </g>
     </g>
     <g id="text_12">
      <!-- 0.06 -->
      <g transform="translate(21.43125 116.11391) scale(0.12 -0.12)">
       <defs>
        <path id="DejaVuSans-36" d="M 2113 2584 
Q 1688 2584 1439 2293 
Q 1191 2003 1191 1497 
Q 1191 994 1439 701 
Q 1688 409 2113 409 
Q 2538 409 2786 701 
Q 3034 994 3034 1497 
Q 3034 2003 2786 2293 
Q 2538 2584 2113 2584 
z
M 3366 4563 
L 3366 3988 
Q 3128 4100 2886 4159 
Q 2644 4219 2406 4219 
Q 1781 4219 1451 3797 
Q 1122 3375 1075 2522 
Q 1259 2794 1537 2939 
Q 1816 3084 2150 3084 
Q 2853 3084 3261 2657 
Q 3669 2231 3669 1497 
Q 3669 778 3244 343 
Q 2819 -91 2113 -91 
Q 1303 -91 875 529 
Q 447 1150 447 2328 
Q 447 3434 972 4092 
Q 1497 4750 2381 4750 
Q 2619 4750 2861 4703 
Q 3103 4656 3366 4563 
z
" transform="scale(0.015625)"/>
       </defs>
       <use xlink:href="#DejaVuSans-30"/>
       <use xlink:href="#DejaVuSans-2e" x="63.623047"/>
       <use xlink:href="#DejaVuSans-30" x="95.410156"/>
       <use xlink:href="#DejaVuSans-36" x="159.033203"/>
      </g>
     </g>
    </g>
    <g id="ytick_8">
     <g id="line2d_14">
      <g>
       <use xlink:href="#mdab89a21d3" x="55.15" y="77.073988" style="stroke: #000000; stroke-width: 0.8"/>
      </g>
     </g>
     <g id="text_13">
      <!-- 0.07 -->
      <g transform="translate(21.43125 81.633051) scale(0.12 -0.12)">
       <defs>
        <path id="DejaVuSans-37" d="M 525 4666 
L 3525 4666 
L 3525 4397 
L 1831 0 
L 1172 0 
L 2766 4134 
L 525 4134 
L 525 4666 
z
" transform="scale(0.015625)"/>
       </defs>
       <use xlink:href="#DejaVuSans-30"/>
       <use xlink:href="#DejaVuSans-2e" x="63.623047"/>
       <use xlink:href="#DejaVuSans-30" x="95.410156"/>
       <use xlink:href="#DejaVuSans-37" x="159.033203"/>
      </g>
     </g>
    </g>
    <g id="ytick_9">
     <g id="line2d_15">
      <g>
       <use xlink:href="#mdab89a21d3" x="55.15" y="42.593129" style="stroke: #000000; stroke-width: 0.8"/>
      </g>
     </g>
     <g id="text_14">
      <!-- 0.08 -->
      <g transform="translate(21.43125 47.152192) scale(0.12 -0.12)">
       <defs>
        <path id="DejaVuSans-38" d="M 2034 2216 
Q 1584 2216 1326 1975 
Q 1069 1734 1069 1313 
Q 1069 891 1326 650 
Q 1584 409 2034 409 
Q 2484 409 2743 651 
Q 3003 894 3003 1313 
Q 3003 1734 2745 1975 
Q 2488 2216 2034 2216 
z
M 1403 2484 
Q 997 2584 770 2862 
Q 544 3141 544 3541 
Q 544 4100 942 4425 
Q 1341 4750 2034 4750 
Q 2731 4750 3128 4425 
Q 3525 4100 3525 3541 
Q 3525 3141 3298 2862 
Q 3072 2584 2669 2484 
Q 3125 2378 3379 2068 
Q 3634 1759 3634 1313 
Q 3634 634 3220 271 
Q 2806 -91 2034 -91 
Q 1263 -91 848 271 
Q 434 634 434 1313 
Q 434 1759 690 2068 
Q 947 2378 1403 2484 
z
M 1172 3481 
Q 1172 3119 1398 2916 
Q 1625 2713 2034 2713 
Q 2441 2713 2670 2916 
Q 2900 3119 2900 3481 
Q 2900 3844 2670 4047 
Q 2441 4250 2034 4250 
Q 1625 4250 1398 4047 
Q 1172 3844 1172 3481 
z
" transform="scale(0.015625)"/>
       </defs>
       <use xlink:href="#DejaVuSans-30"/>
       <use xlink:href="#DejaVuSans-2e" x="63.623047"/>
       <use xlink:href="#DejaVuSans-30" x="95.410156"/>
       <use xlink:href="#DejaVuSans-38" x="159.033203"/>
      </g>
     </g>
    </g>
   </g>
   <g id="text_15">
    <!-- Midpoint of the entire sequence:index=25 -->
    <g transform="translate(228.883594 32.4) scale(0.14 -0.14)">
     <defs>
      <path id="DejaVuSans-4d" d="M 628 4666 
L 1569 4666 
L 2759 1491 
L 3956 4666 
L 4897 4666 
L 4897 0 
L 4281 0 
L 4281 4097 
L 3078 897 
L 2444 897 
L 1241 4097 
L 1241 0 
L 628 0 
L 628 4666 
z
" transform="scale(0.015625)"/>
      <path id="DejaVuSans-69" d="M 603 3500 
L 1178 3500 
L 1178 0 
L 603 0 
L 603 3500 
z
M 603 4863 
L 1178 4863 
L 1178 4134 
L 603 4134 
L 603 4863 
z
" transform="scale(0.015625)"/>
      <path id="DejaVuSans-64" d="M 2906 2969 
L 2906 4863 
L 3481 4863 
L 3481 0 
L 2906 0 
L 2906 525 
Q 2725 213 2448 61 
Q 2172 -91 1784 -91 
Q 1150 -91 751 415 
Q 353 922 353 1747 
Q 353 2572 751 3078 
Q 1150 3584 1784 3584 
Q 2172 3584 2448 3432 
Q 2725 3281 2906 2969 
z
M 947 1747 
Q 947 1113 1208 752 
Q 1469 391 1925 391 
Q 2381 391 2643 752 
Q 2906 1113 2906 1747 
Q 2906 2381 2643 2742 
Q 2381 3103 1925 3103 
Q 1469 3103 1208 2742 
Q 947 2381 947 1747 
z
" transform="scale(0.015625)"/>
      <path id="DejaVuSans-70" d="M 1159 525 
L 1159 -1331 
L 581 -1331 
L 581 3500 
L 1159 3500 
L 1159 2969 
Q 1341 3281 1617 3432 
Q 1894 3584 2278 3584 
Q 2916 3584 3314 3078 
Q 3713 2572 3713 1747 
Q 3713 922 3314 415 
Q 2916 -91 2278 -91 
Q 1894 -91 1617 61 
Q 1341 213 1159 525 
z
M 3116 1747 
Q 3116 2381 2855 2742 
Q 2594 3103 2138 3103 
Q 1681 3103 1420 2742 
Q 1159 2381 1159 1747 
Q 1159 1113 1420 752 
Q 1681 391 2138 391 
Q 2594 391 2855 752 
Q 3116 1113 3116 1747 
z
" transform="scale(0.015625)"/>
      <path id="DejaVuSans-6f" d="M 1959 3097 
Q 1497 3097 1228 2736 
Q 959 2375 959 1747 
Q 959 1119 1226 758 
Q 1494 397 1959 397 
Q 2419 397 2687 759 
Q 2956 1122 2956 1747 
Q 2956 2369 2687 2733 
Q 2419 3097 1959 3097 
z
M 1959 3584 
Q 2709 3584 3137 3096 
Q 3566 2609 3566 1747 
Q 3566 888 3137 398 
Q 2709 -91 1959 -91 
Q 1206 -91 779 398 
Q 353 888 353 1747 
Q 353 2609 779 3096 
Q 1206 3584 1959 3584 
z
" transform="scale(0.015625)"/>
      <path id="DejaVuSans-6e" d="M 3513 2113 
L 3513 0 
L 2938 0 
L 2938 2094 
Q 2938 2591 2744 2837 
Q 2550 3084 2163 3084 
Q 1697 3084 1428 2787 
Q 1159 2491 1159 1978 
L 1159 0 
L 581 0 
L 581 3500 
L 1159 3500 
L 1159 2956 
Q 1366 3272 1645 3428 
Q 1925 3584 2291 3584 
Q 2894 3584 3203 3211 
Q 3513 2838 3513 2113 
z
" transform="scale(0.015625)"/>
      <path id="DejaVuSans-74" d="M 1172 4494 
L 1172 3500 
L 2356 3500 
L 2356 3053 
L 1172 3053 
L 1172 1153 
Q 1172 725 1289 603 
Q 1406 481 1766 481 
L 2356 481 
L 2356 0 
L 1766 0 
Q 1100 0 847 248 
Q 594 497 594 1153 
L 594 3053 
L 172 3053 
L 172 3500 
L 594 3500 
L 594 4494 
L 1172 4494 
z
" transform="scale(0.015625)"/>
      <path id="DejaVuSans-20" transform="scale(0.015625)"/>
      <path id="DejaVuSans-66" d="M 2375 4863 
L 2375 4384 
L 1825 4384 
Q 1516 4384 1395 4259 
Q 1275 4134 1275 3809 
L 1275 3500 
L 2222 3500 
L 2222 3053 
L 1275 3053 
L 1275 0 
L 697 0 
L 697 3053 
L 147 3053 
L 147 3500 
L 697 3500 
L 697 3744 
Q 697 4328 969 4595 
Q 1241 4863 1831 4863 
L 2375 4863 
z
" transform="scale(0.015625)"/>
      <path id="DejaVuSans-68" d="M 3513 2113 
L 3513 0 
L 2938 0 
L 2938 2094 
Q 2938 2591 2744 2837 
Q 2550 3084 2163 3084 
Q 1697 3084 1428 2787 
Q 1159 2491 1159 1978 
L 1159 0 
L 581 0 
L 581 4863 
L 1159 4863 
L 1159 2956 
Q 1366 3272 1645 3428 
Q 1925 3584 2291 3584 
Q 2894 3584 3203 3211 
Q 3513 2838 3513 2113 
z
" transform="scale(0.015625)"/>
      <path id="DejaVuSans-65" d="M 3597 1894 
L 3597 1613 
L 953 1613 
Q 991 1019 1311 708 
Q 1631 397 2203 397 
Q 2534 397 2845 478 
Q 3156 559 3463 722 
L 3463 178 
Q 3153 47 2828 -22 
Q 2503 -91 2169 -91 
Q 1331 -91 842 396 
Q 353 884 353 1716 
Q 353 2575 817 3079 
Q 1281 3584 2069 3584 
Q 2775 3584 3186 3129 
Q 3597 2675 3597 1894 
z
M 3022 2063 
Q 3016 2534 2758 2815 
Q 2500 3097 2075 3097 
Q 1594 3097 1305 2825 
Q 1016 2553 972 2059 
L 3022 2063 
z
" transform="scale(0.015625)"/>
      <path id="DejaVuSans-72" d="M 2631 2963 
Q 2534 3019 2420 3045 
Q 2306 3072 2169 3072 
Q 1681 3072 1420 2755 
Q 1159 2438 1159 1844 
L 1159 0 
L 581 0 
L 581 3500 
L 1159 3500 
L 1159 2956 
Q 1341 3275 1631 3429 
Q 1922 3584 2338 3584 
Q 2397 3584 2469 3576 
Q 2541 3569 2628 3553 
L 2631 2963 
z
" transform="scale(0.015625)"/>
      <path id="DejaVuSans-73" d="M 2834 3397 
L 2834 2853 
Q 2591 2978 2328 3040 
Q 2066 3103 1784 3103 
Q 1356 3103 1142 2972 
Q 928 2841 928 2578 
Q 928 2378 1081 2264 
Q 1234 2150 1697 2047 
L 1894 2003 
Q 2506 1872 2764 1633 
Q 3022 1394 3022 966 
Q 3022 478 2636 193 
Q 2250 -91 1575 -91 
Q 1294 -91 989 -36 
Q 684 19 347 128 
L 347 722 
Q 666 556 975 473 
Q 1284 391 1588 391 
Q 1994 391 2212 530 
Q 2431 669 2431 922 
Q 2431 1156 2273 1281 
Q 2116 1406 1581 1522 
L 1381 1569 
Q 847 1681 609 1914 
Q 372 2147 372 2553 
Q 372 3047 722 3315 
Q 1072 3584 1716 3584 
Q 2034 3584 2315 3537 
Q 2597 3491 2834 3397 
z
" transform="scale(0.015625)"/>
      <path id="DejaVuSans-71" d="M 947 1747 
Q 947 1113 1208 752 
Q 1469 391 1925 391 
Q 2381 391 2643 752 
Q 2906 1113 2906 1747 
Q 2906 2381 2643 2742 
Q 2381 3103 1925 3103 
Q 1469 3103 1208 2742 
Q 947 2381 947 1747 
z
M 2906 525 
Q 2725 213 2448 61 
Q 2172 -91 1784 -91 
Q 1150 -91 751 415 
Q 353 922 353 1747 
Q 353 2572 751 3078 
Q 1150 3584 1784 3584 
Q 2172 3584 2448 3432 
Q 2725 3281 2906 2969 
L 2906 3500 
L 3481 3500 
L 3481 -1331 
L 2906 -1331 
L 2906 525 
z
" transform="scale(0.015625)"/>
      <path id="DejaVuSans-75" d="M 544 1381 
L 544 3500 
L 1119 3500 
L 1119 1403 
Q 1119 906 1312 657 
Q 1506 409 1894 409 
Q 2359 409 2629 706 
Q 2900 1003 2900 1516 
L 2900 3500 
L 3475 3500 
L 3475 0 
L 2900 0 
L 2900 538 
Q 2691 219 2414 64 
Q 2138 -91 1772 -91 
Q 1169 -91 856 284 
Q 544 659 544 1381 
z
M 1991 3584 
L 1991 3584 
z
" transform="scale(0.015625)"/>
      <path id="DejaVuSans-63" d="M 3122 3366 
L 3122 2828 
Q 2878 2963 2633 3030 
Q 2388 3097 2138 3097 
Q 1578 3097 1268 2742 
Q 959 2388 959 1747 
Q 959 1106 1268 751 
Q 1578 397 2138 397 
Q 2388 397 2633 464 
Q 2878 531 3122 666 
L 3122 134 
Q 2881 22 2623 -34 
Q 2366 -91 2075 -91 
Q 1284 -91 818 406 
Q 353 903 353 1747 
Q 353 2603 823 3093 
Q 1294 3584 2113 3584 
Q 2378 3584 2631 3529 
Q 2884 3475 3122 3366 
z
" transform="scale(0.015625)"/>
      <path id="DejaVuSans-3a" d="M 750 794 
L 1409 794 
L 1409 0 
L 750 0 
L 750 794 
z
M 750 3309 
L 1409 3309 
L 1409 2516 
L 750 2516 
L 750 3309 
z
" transform="scale(0.015625)"/>
      <path id="DejaVuSans-78" d="M 3513 3500 
L 2247 1797 
L 3578 0 
L 2900 0 
L 1881 1375 
L 863 0 
L 184 0 
L 1544 1831 
L 300 3500 
L 978 3500 
L 1906 2253 
L 2834 3500 
L 3513 3500 
z
" transform="scale(0.015625)"/>
      <path id="DejaVuSans-3d" d="M 678 2906 
L 4684 2906 
L 4684 2381 
L 678 2381 
L 678 2906 
z
M 678 1631 
L 4684 1631 
L 4684 1100 
L 678 1100 
L 678 1631 
z
" transform="scale(0.015625)"/>
     </defs>
     <use xlink:href="#DejaVuSans-4d"/>
     <use xlink:href="#DejaVuSans-69" x="86.279297"/>
     <use xlink:href="#DejaVuSans-64" x="114.0625"/>
     <use xlink:href="#DejaVuSans-70" x="177.539062"/>
     <use xlink:href="#DejaVuSans-6f" x="241.015625"/>
     <use xlink:href="#DejaVuSans-69" x="302.197266"/>
     <use xlink:href="#DejaVuSans-6e" x="329.980469"/>
     <use xlink:href="#DejaVuSans-74" x="393.359375"/>
     <use xlink:href="#DejaVuSans-20" x="432.568359"/>
     <use xlink:href="#DejaVuSans-6f" x="464.355469"/>
     <use xlink:href="#DejaVuSans-66" x="525.537109"/>
     <use xlink:href="#DejaVuSans-20" x="560.742188"/>
     <use xlink:href="#DejaVuSans-74" x="592.529297"/>
     <use xlink:href="#DejaVuSans-68" x="631.738281"/>
     <use xlink:href="#DejaVuSans-65" x="695.117188"/>
     <use xlink:href="#DejaVuSans-20" x="756.640625"/>
     <use xlink:href="#DejaVuSans-65" x="788.427734"/>
     <use xlink:href="#DejaVuSans-6e" x="849.951172"/>
     <use xlink:href="#DejaVuSans-74" x="913.330078"/>
     <use xlink:href="#DejaVuSans-69" x="952.539062"/>
     <use xlink:href="#DejaVuSans-72" x="980.322266"/>
     <use xlink:href="#DejaVuSans-65" x="1019.185547"/>
     <use xlink:href="#DejaVuSans-20" x="1080.708984"/>
     <use xlink:href="#DejaVuSans-73" x="1112.496094"/>
     <use xlink:href="#DejaVuSans-65" x="1164.595703"/>
     <use xlink:href="#DejaVuSans-71" x="1226.119141"/>
     <use xlink:href="#DejaVuSans-75" x="1289.595703"/>
     <use xlink:href="#DejaVuSans-65" x="1352.974609"/>
     <use xlink:href="#DejaVuSans-6e" x="1414.498047"/>
     <use xlink:href="#DejaVuSans-63" x="1477.876953"/>
     <use xlink:href="#DejaVuSans-65" x="1532.857422"/>
     <use xlink:href="#DejaVuSans-3a" x="1594.380859"/>
     <use xlink:href="#DejaVuSans-69" x="1628.072266"/>
     <use xlink:href="#DejaVuSans-6e" x="1655.855469"/>
     <use xlink:href="#DejaVuSans-64" x="1719.234375"/>
     <use xlink:href="#DejaVuSans-65" x="1782.710938"/>
     <use xlink:href="#DejaVuSans-78" x="1842.484375"/>
     <use xlink:href="#DejaVuSans-3d" x="1901.664062"/>
     <use xlink:href="#DejaVuSans-32" x="1985.453125"/>
     <use xlink:href="#DejaVuSans-35" x="2049.076172"/>
    </g>
   </g>
  </g>
 </g>
 <defs>
  <clipPath id="pe314cf4a80">
   <rect x="55.15" y="38.4" width="643.25" height="280.04"/>
  </clipPath>
 </defs>
</svg>
